<svg xmlns="http://www.w3.org/2000/svg" width="73.53713" height="66.44724" viewBox="0 0 73.53713 66.44724"><g id="a62a5544-5ce1-45f5-8361-b14741373cb1" data-name="Layer 2"><g id="e3eb58e3-d32f-4e83-8d30-204e7caa695f" data-name="Layer 1"><path d="M35.93947,66.1546a1.32862,1.32862,0,0,0,1.6637,0c1.23026-.98758,30.19191-24.34494,34.50559-38.10941a23.495,23.495,0,0,0-1.66889-19.7503A16.73488,16.73488,0,0,0,57.72073.1652C46.58612-1.18769,39.40962,6.116,36.77132,9.41614,34.13172,6.116,26.94224-1.187,15.82191.1652a16.73475,16.73475,0,0,0-12.72044,8.131A23.44553,23.44553,0,0,0,1.41052,27.97511C5.74626,41.80966,34.70921,65.167,35.93947,66.1546ZM5.37381,9.675A14.16161,14.16161,0,0,1,16.14375,2.80351,18.88943,18.88943,0,0,1,18.43037,2.664c10.88154,0,17.15352,9.61041,17.2197,9.71423a1.38314,1.38314,0,0,0,2.2425,0c.07137-.111,7.23619-11.06582,19.50632-9.57472A14.15956,14.15956,0,0,1,68.16753,9.67374a21.07964,21.07964,0,0,1,1.42881,17.50651c-3.705,11.81786-27.99613,32.24947-32.825,36.2225C31.94243,59.42907,7.64745,38.99162,3.92294,27.11082A21.03113,21.03113,0,0,1,5.37381,9.675Z" style="fill:#ec5d55"/></g></g></svg>